<mxfile host="app.diagrams.net" modified="2023-09-16T22:06:03.985Z" agent="Mozilla/5.0 (Macintosh; Intel Mac OS X 10_15_7) AppleWebKit/605.1.15 (KHTML, like Gecko) Version/15.4 Safari/605.1.15" etag="gS43hsLHYcx5WaWFZl5I" version="21.7.5" type="github">
  <diagram name="Page-1" id="B-3MT0VjL5AQh0WBv9IJ">
    <mxGraphModel dx="1352" dy="927" grid="1" gridSize="10" guides="1" tooltips="1" connect="1" arrows="1" fold="1" page="1" pageScale="1" pageWidth="850" pageHeight="1100" math="0" shadow="0">
      <root>
        <mxCell id="0" />
        <mxCell id="1" parent="0" />
        <mxCell id="_jF0MVlZ8FYj_BNmaVgh-116" value="" style="rounded=1;whiteSpace=wrap;html=1;strokeWidth=0;" vertex="1" parent="1">
          <mxGeometry x="110.89" y="121.54" width="181" height="108.46" as="geometry" />
        </mxCell>
        <mxCell id="_jF0MVlZ8FYj_BNmaVgh-2" value="" style="group" vertex="1" connectable="0" parent="1">
          <mxGeometry x="501" y="103.79" width="235" height="247.20999999999998" as="geometry" />
        </mxCell>
        <mxCell id="_jF0MVlZ8FYj_BNmaVgh-3" style="edgeStyle=orthogonalEdgeStyle;rounded=0;orthogonalLoop=1;jettySize=auto;html=1;exitX=1;exitY=0;exitDx=0;exitDy=0;strokeColor=none;" edge="1" parent="_jF0MVlZ8FYj_BNmaVgh-2">
          <mxGeometry relative="1" as="geometry">
            <mxPoint x="-91" y="0.20999999999999375" as="targetPoint" />
            <mxPoint x="-147.3174887773837" y="190.69452591765452" as="sourcePoint" />
          </mxGeometry>
        </mxCell>
        <mxCell id="_jF0MVlZ8FYj_BNmaVgh-30" value="&lt;font style=&quot;font-size: 12px;&quot;&gt;encoding&lt;/font&gt;" style="strokeWidth=1;dashed=0;align=center;fontSize=8;shape=ellipse;perimeter=ellipsePerimeter;whiteSpace=wrap;html=1;aspect=fixed;fillColor=#dae8fc;strokeColor=#6c8ebf;" vertex="1" parent="_jF0MVlZ8FYj_BNmaVgh-2">
          <mxGeometry x="-281" y="26.21" width="60" height="41.53" as="geometry" />
        </mxCell>
        <mxCell id="_jF0MVlZ8FYj_BNmaVgh-31" value="&lt;font style=&quot;font-size: 12px;&quot;&gt;protein&lt;/font&gt;" style="strokeWidth=1;dashed=0;align=center;fontSize=8;shape=ellipse;perimeter=ellipsePerimeter;whiteSpace=wrap;html=1;aspect=fixed;fillColor=#dae8fc;strokeColor=#6c8ebf;" vertex="1" parent="_jF0MVlZ8FYj_BNmaVgh-2">
          <mxGeometry x="-382" y="49.91000000000001" width="48.04" height="33.25" as="geometry" />
        </mxCell>
        <mxCell id="_jF0MVlZ8FYj_BNmaVgh-33" value="&lt;font style=&quot;font-size: 12px;&quot;&gt;WFS1&lt;/font&gt;" style="strokeWidth=1;dashed=0;align=center;fontSize=8;shape=ellipse;perimeter=ellipsePerimeter;whiteSpace=wrap;html=1;aspect=fixed;fillColor=#dae8fc;strokeColor=#6c8ebf;" vertex="1" parent="_jF0MVlZ8FYj_BNmaVgh-2">
          <mxGeometry x="-320" y="57.4" width="39" height="27" as="geometry" />
        </mxCell>
        <mxCell id="_jF0MVlZ8FYj_BNmaVgh-34" value="" style="edgeStyle=none;endArrow=none;dashed=0;html=1;strokeWidth=1;rounded=0;" edge="1" parent="_jF0MVlZ8FYj_BNmaVgh-2" source="_jF0MVlZ8FYj_BNmaVgh-33" target="_jF0MVlZ8FYj_BNmaVgh-30">
          <mxGeometry relative="1" as="geometry" />
        </mxCell>
        <mxCell id="_jF0MVlZ8FYj_BNmaVgh-35" value="" style="edgeStyle=none;endArrow=none;dashed=0;html=1;strokeWidth=1;rounded=0;" edge="1" parent="_jF0MVlZ8FYj_BNmaVgh-2" source="_jF0MVlZ8FYj_BNmaVgh-33" target="_jF0MVlZ8FYj_BNmaVgh-31">
          <mxGeometry relative="1" as="geometry" />
        </mxCell>
        <mxCell id="_jF0MVlZ8FYj_BNmaVgh-37" value="Seed KG" style="text;html=1;align=center;verticalAlign=middle;resizable=0;points=[];autosize=1;strokeColor=none;fillColor=none;" vertex="1" parent="_jF0MVlZ8FYj_BNmaVgh-2">
          <mxGeometry x="-359" y="89.21" width="70" height="30" as="geometry" />
        </mxCell>
        <mxCell id="_jF0MVlZ8FYj_BNmaVgh-59" value="" style="rounded=1;whiteSpace=wrap;html=1;strokeColor=default;strokeWidth=0;" vertex="1" parent="_jF0MVlZ8FYj_BNmaVgh-2">
          <mxGeometry x="-178" y="45.20999999999998" width="275" height="62" as="geometry" />
        </mxCell>
        <mxCell id="_jF0MVlZ8FYj_BNmaVgh-102" value="W" style="ellipse;whiteSpace=wrap;html=1;fillColor=#ffe6cc;strokeColor=#d79b00;" vertex="1" parent="_jF0MVlZ8FYj_BNmaVgh-2">
          <mxGeometry x="-174" y="57.20999999999998" width="25" height="20" as="geometry" />
        </mxCell>
        <mxCell id="_jF0MVlZ8FYj_BNmaVgh-103" style="edgeStyle=orthogonalEdgeStyle;rounded=0;orthogonalLoop=1;jettySize=auto;html=1;exitX=0;exitY=0.5;exitDx=0;exitDy=0;entryX=1;entryY=0.5;entryDx=0;entryDy=0;endArrow=none;endFill=0;" edge="1" parent="_jF0MVlZ8FYj_BNmaVgh-2" source="_jF0MVlZ8FYj_BNmaVgh-105" target="_jF0MVlZ8FYj_BNmaVgh-102">
          <mxGeometry relative="1" as="geometry" />
        </mxCell>
        <mxCell id="_jF0MVlZ8FYj_BNmaVgh-105" value="FS" style="ellipse;whiteSpace=wrap;html=1;fillColor=#ffe6cc;strokeColor=#d79b00;" vertex="1" parent="_jF0MVlZ8FYj_BNmaVgh-2">
          <mxGeometry x="-140.37" y="57.20999999999998" width="25" height="20" as="geometry" />
        </mxCell>
        <mxCell id="_jF0MVlZ8FYj_BNmaVgh-106" value="1" style="ellipse;whiteSpace=wrap;html=1;fillColor=#ffe6cc;strokeColor=#d79b00;" vertex="1" parent="_jF0MVlZ8FYj_BNmaVgh-2">
          <mxGeometry x="-105" y="57.20999999999998" width="25" height="20" as="geometry" />
        </mxCell>
        <mxCell id="_jF0MVlZ8FYj_BNmaVgh-104" style="rounded=0;orthogonalLoop=1;jettySize=auto;html=1;exitX=1;exitY=0.5;exitDx=0;exitDy=0;entryX=0;entryY=0.5;entryDx=0;entryDy=0;endArrow=none;endFill=0;" edge="1" parent="_jF0MVlZ8FYj_BNmaVgh-2" source="_jF0MVlZ8FYj_BNmaVgh-105" target="_jF0MVlZ8FYj_BNmaVgh-106">
          <mxGeometry relative="1" as="geometry" />
        </mxCell>
        <mxCell id="_jF0MVlZ8FYj_BNmaVgh-108" value="deficiency" style="ellipse;whiteSpace=wrap;html=1;fillColor=#ffe6cc;strokeColor=#d79b00;" vertex="1" parent="_jF0MVlZ8FYj_BNmaVgh-2">
          <mxGeometry x="-69.5" y="57.20999999999998" width="72.5" height="20" as="geometry" />
        </mxCell>
        <mxCell id="_jF0MVlZ8FYj_BNmaVgh-109" value="leads" style="ellipse;whiteSpace=wrap;html=1;fillColor=#ffe6cc;strokeColor=#d79b00;" vertex="1" parent="_jF0MVlZ8FYj_BNmaVgh-2">
          <mxGeometry x="13" y="57.20999999999998" width="40" height="20" as="geometry" />
        </mxCell>
        <mxCell id="_jF0MVlZ8FYj_BNmaVgh-107" style="edgeStyle=none;rounded=0;orthogonalLoop=1;jettySize=auto;html=1;exitX=1;exitY=0.5;exitDx=0;exitDy=0;entryX=0;entryY=0.5;entryDx=0;entryDy=0;endArrow=none;endFill=0;" edge="1" parent="_jF0MVlZ8FYj_BNmaVgh-2" source="_jF0MVlZ8FYj_BNmaVgh-108" target="_jF0MVlZ8FYj_BNmaVgh-109">
          <mxGeometry relative="1" as="geometry" />
        </mxCell>
        <mxCell id="_jF0MVlZ8FYj_BNmaVgh-110" value="" style="endArrow=none;html=1;rounded=0;entryX=0;entryY=0.5;entryDx=0;entryDy=0;" edge="1" parent="_jF0MVlZ8FYj_BNmaVgh-2" target="_jF0MVlZ8FYj_BNmaVgh-108">
          <mxGeometry width="50" height="50" relative="1" as="geometry">
            <mxPoint x="-80" y="67.20999999999998" as="sourcePoint" />
            <mxPoint x="-30" y="17.20999999999998" as="targetPoint" />
          </mxGeometry>
        </mxCell>
        <mxCell id="_jF0MVlZ8FYj_BNmaVgh-111" style="edgeStyle=none;rounded=0;orthogonalLoop=1;jettySize=auto;html=1;exitX=0;exitY=0.5;exitDx=0;exitDy=0;entryX=1;entryY=0.5;entryDx=0;entryDy=0;endArrow=none;endFill=0;" edge="1" parent="_jF0MVlZ8FYj_BNmaVgh-2" source="_jF0MVlZ8FYj_BNmaVgh-112" target="_jF0MVlZ8FYj_BNmaVgh-109">
          <mxGeometry relative="1" as="geometry" />
        </mxCell>
        <mxCell id="_jF0MVlZ8FYj_BNmaVgh-112" value="to..." style="ellipse;whiteSpace=wrap;html=1;fillColor=#ffe6cc;strokeColor=#d79b00;" vertex="1" parent="_jF0MVlZ8FYj_BNmaVgh-2">
          <mxGeometry x="63" y="57.20999999999998" width="25" height="20" as="geometry" />
        </mxCell>
        <mxCell id="_jF0MVlZ8FYj_BNmaVgh-113" value="Chain graph from sentence" style="text;html=1;align=center;verticalAlign=middle;resizable=0;points=[];autosize=1;strokeColor=none;fillColor=none;" vertex="1" parent="_jF0MVlZ8FYj_BNmaVgh-2">
          <mxGeometry x="-131" y="75.20999999999998" width="170" height="30" as="geometry" />
        </mxCell>
        <mxCell id="_jF0MVlZ8FYj_BNmaVgh-32" value="&lt;font style=&quot;font-size: 12px;&quot;&gt;gene&lt;/font&gt;" style="strokeWidth=1;dashed=0;align=center;fontSize=8;shape=ellipse;perimeter=ellipsePerimeter;whiteSpace=wrap;html=1;aspect=fixed;fillColor=#dae8fc;strokeColor=#6c8ebf;" vertex="1" parent="1">
          <mxGeometry x="228.33999999999997" y="193" width="43.33" height="30" as="geometry" />
        </mxCell>
        <mxCell id="_jF0MVlZ8FYj_BNmaVgh-36" value="" style="edgeStyle=none;endArrow=none;dashed=0;html=1;strokeWidth=1;rounded=0;" edge="1" parent="1" source="_jF0MVlZ8FYj_BNmaVgh-33" target="_jF0MVlZ8FYj_BNmaVgh-32">
          <mxGeometry relative="1" as="geometry" />
        </mxCell>
      </root>
    </mxGraphModel>
  </diagram>
</mxfile>
